<svg width="309" height="250" viewBox="0 0 309 250" fill="none" xmlns="http://www.w3.org/2000/svg">
<path d="M203.981 9H254.976L127.488 223.805L0 9H97.5283L127.488 58.81L156.81 9H203.981Z" fill="#41B883"/>
<path d="M0 9L127.488 223.805L254.976 9H203.981L127.488 137.883L50.3578 9H0Z" fill="#41B883"/>
<path d="M50.3578 9L127.488 138.506L203.981 9H156.81L127.488 58.81L97.5284 9H50.3578Z" fill="#35495E"/>
<path d="M192.948 196.826C192.718 197.211 192.456 197.465 192.16 197.586C191.853 197.664 191.493 197.674 191.082 197.615L167.304 194.013L166.884 193.874C166.636 193.727 166.479 193.522 166.413 193.258C166.335 192.951 166.378 192.66 166.541 192.385L169.317 187.725C169.677 187.12 170.203 186.894 170.895 187.045L186.331 189.925L176.47 177.683C176.008 177.147 175.956 176.577 176.317 175.972L179.092 171.312C179.239 171.064 179.467 170.901 179.774 170.824C180.053 170.729 180.317 170.756 180.564 170.903L180.886 171.207L195.38 190.397C195.628 190.731 195.783 191.066 195.844 191.4C195.878 191.718 195.78 192.07 195.551 192.455L192.948 196.826ZM208.114 172.298C206.673 174.717 204.7 176.186 202.194 176.705C199.66 177.207 196.922 176.582 193.98 174.83L182.474 167.978C182.172 167.798 181.982 167.554 181.904 167.247C181.826 166.94 181.877 166.635 182.057 166.333L185.127 161.178C185.307 160.875 185.551 160.685 185.858 160.607C186.181 160.502 186.494 160.539 186.797 160.719L198.055 167.425C200.75 169.029 202.809 168.636 204.234 166.244C204.921 165.089 205.104 163.969 204.783 162.883C204.461 161.798 203.667 160.878 202.403 160.125L191.144 153.42C190.842 153.24 190.652 152.996 190.574 152.689C190.512 152.355 190.563 152.05 190.727 151.775L193.797 146.62C193.977 146.317 194.221 146.127 194.528 146.049C194.835 145.972 195.14 146.023 195.442 146.203L214.825 157.746C215.1 157.91 215.29 158.154 215.396 158.477C215.473 158.784 215.422 159.089 215.242 159.391L212.393 164.175C212.229 164.45 211.986 164.64 211.662 164.746C211.328 164.807 211.023 164.756 210.748 164.592L209.181 163.659C210.337 166.284 209.981 169.164 208.114 172.298ZM225.052 143.857C223.087 147.157 220.646 149.223 217.73 150.055C214.813 150.888 211.625 150.331 208.167 148.383L206.723 147.523C203.545 145.481 201.613 142.971 200.928 139.993C200.232 136.972 200.842 133.853 202.758 130.636C204.15 128.299 205.801 126.62 207.713 125.598C209.614 124.533 211.627 124.093 213.751 124.278C215.892 124.435 218.035 125.153 220.179 126.43L221.169 127.019C221.444 127.183 221.634 127.427 221.74 127.75C221.817 128.057 221.766 128.362 221.586 128.664L213.727 141.861L214.015 142.033C215.34 142.748 216.573 143.054 217.714 142.951C218.856 142.849 219.754 142.248 220.409 141.148C220.818 140.461 221.016 139.815 221.003 139.211C220.963 138.591 220.843 137.98 220.643 137.377C220.488 136.949 220.424 136.65 220.451 136.48C220.467 136.266 220.573 135.994 220.769 135.664L223.815 130.55C223.962 130.303 224.168 130.146 224.431 130.079C224.683 129.969 224.933 129.987 225.18 130.134C225.895 130.56 226.474 131.464 226.918 132.845C227.378 134.199 227.493 135.851 227.263 137.8C227.034 139.749 226.297 141.768 225.052 143.857ZM213.795 132.46L213.712 132.411C212.365 131.609 211.118 131.294 209.972 131.468C208.814 131.598 207.908 132.213 207.253 133.313C206.614 134.385 206.505 135.475 206.926 136.582C207.336 137.645 208.214 138.578 209.561 139.381L209.644 139.43L213.795 132.46ZM239.813 118.134C236.424 123.825 232.021 125.058 226.605 121.832L218.687 117.116L216.771 120.333C216.591 120.635 216.339 120.839 216.016 120.945C215.709 121.022 215.404 120.971 215.101 120.791L211.761 118.802C211.459 118.622 211.268 118.378 211.191 118.071C211.129 117.736 211.188 117.418 211.369 117.116L213.284 113.899L206.48 109.846C206.177 109.666 205.987 109.423 205.909 109.115C205.848 108.781 205.899 108.476 206.063 108.201L208.912 103.417C209.092 103.115 209.335 102.925 209.642 102.847C209.95 102.769 210.254 102.82 210.557 103L217.361 107.053L220.431 101.898C220.612 101.595 220.855 101.405 221.162 101.327C221.486 101.222 221.799 101.26 222.101 101.44L225.442 103.429C225.744 103.609 225.926 103.867 225.987 104.201C226.065 104.508 226.014 104.813 225.834 105.115L222.764 110.27L230.105 114.642C232.139 115.854 233.623 115.676 234.556 114.109L236.448 110.933C236.628 110.631 236.871 110.441 237.178 110.363C237.485 110.285 237.79 110.336 238.093 110.516L241.68 112.653C241.955 112.817 242.146 113.061 242.251 113.384C242.329 113.691 242.278 113.996 242.097 114.298L239.813 118.134ZM220.797 94.2493C220.616 94.5517 220.373 94.7419 220.066 94.8197C219.759 94.8975 219.454 94.8464 219.151 94.6663L215.44 92.4558C215.137 92.2757 214.947 92.0321 214.869 91.725C214.792 91.418 214.843 91.1132 215.023 90.8108L217.97 85.8619C218.15 85.5595 218.394 85.3694 218.701 85.2915C219.008 85.2137 219.313 85.2648 219.615 85.4449L223.327 87.6554C223.629 87.8355 223.819 88.0791 223.897 88.3862C223.975 88.6933 223.924 88.998 223.744 89.3004L220.797 94.2493ZM245.359 108.822C245.179 109.124 244.935 109.314 244.628 109.392C244.321 109.47 244.016 109.419 243.714 109.239L224.331 97.6951C224.029 97.515 223.839 97.2714 223.761 96.9644C223.683 96.6573 223.734 96.3525 223.914 96.0501L226.812 91.1837C226.992 90.8813 227.236 90.6912 227.543 90.6133C227.85 90.5355 228.155 90.5866 228.457 90.7668L247.84 102.31C248.115 102.474 248.305 102.718 248.411 103.041C248.489 103.348 248.437 103.653 248.257 103.955L245.359 108.822ZM252.387 97.0215C252.223 97.2964 251.979 97.4866 251.656 97.5919C251.321 97.6534 251.017 97.6022 250.742 97.4385L223.523 81.2284C223.221 81.0483 223.031 80.8047 222.953 80.4976C222.891 80.163 222.942 79.8583 223.106 79.5833L226.004 74.717C226.184 74.4145 226.428 74.2244 226.735 74.1466C227.042 74.0687 227.347 74.1199 227.649 74.3L254.868 90.5101C255.17 90.6902 255.36 90.9338 255.438 91.2409C255.516 91.548 255.465 91.8527 255.285 92.1551L252.387 97.0215ZM234.852 70.6489C234.672 70.9513 234.428 71.1414 234.121 71.2193C233.814 71.2971 233.509 71.246 233.207 71.0658L229.495 68.8554C229.193 68.6753 229.003 68.4317 228.925 68.1246C228.847 67.8175 228.898 67.5128 229.078 67.2103L232.025 62.2615C232.206 61.9591 232.449 61.7689 232.756 61.6911C233.063 61.6133 233.368 61.6644 233.67 61.8445L237.382 64.055C237.685 64.2351 237.875 64.4787 237.953 64.7858C238.03 65.0928 237.979 65.3976 237.799 65.7L234.852 70.6489ZM259.414 85.2213C259.234 85.5237 258.991 85.7139 258.684 85.7917C258.377 85.8695 258.072 85.8184 257.769 85.6383L238.386 74.0947C238.084 73.9146 237.894 73.671 237.816 73.3639C237.738 73.0569 237.789 72.7521 237.969 72.4497L240.868 67.5833C241.048 67.2809 241.291 67.0907 241.598 67.0129C241.905 66.9351 242.21 66.9862 242.513 67.1663L261.896 78.7099C262.171 78.8736 262.361 79.1172 262.466 79.4407C262.544 79.7477 262.493 80.0525 262.313 80.3549L259.414 85.2213ZM272.361 63.4821C268.972 69.1733 264.569 70.4061 259.153 67.1804L251.235 62.4647L249.319 65.6815C249.139 65.9839 248.887 66.1878 248.564 66.2931C248.256 66.371 247.952 66.3198 247.649 66.1397L244.309 64.1503C244.006 63.9702 243.816 63.7266 243.738 63.4195C243.677 63.085 243.736 62.7665 243.916 62.464L245.832 59.2473L239.027 55.1947C238.725 55.0146 238.535 54.771 238.457 54.464C238.396 54.1294 238.447 53.8247 238.61 53.5497L241.46 48.7658C241.64 48.4634 241.883 48.2733 242.19 48.1954C242.497 48.1176 242.802 48.1687 243.105 48.3488L249.909 52.4014L252.979 47.2463C253.159 46.9439 253.403 46.7538 253.71 46.6759C254.034 46.5706 254.346 46.608 254.649 46.7881L257.989 48.7775C258.292 48.9576 258.474 49.215 258.535 49.5495C258.613 49.8566 258.562 50.1614 258.382 50.4638L255.312 55.6188L262.652 59.9907C264.687 61.2023 266.171 61.0246 267.104 59.4575L268.995 56.282C269.176 55.9795 269.419 55.7894 269.726 55.7116C270.033 55.6337 270.338 55.6849 270.64 55.865L274.228 58.0018C274.503 58.1655 274.693 58.4091 274.799 58.7325C274.877 59.0396 274.825 59.3444 274.645 59.6468L272.361 63.4821ZM287.511 55.8675C287.364 56.1149 287.158 56.272 286.895 56.3387C286.632 56.4054 286.377 56.3651 286.129 56.2177C285.937 56.1031 285.783 55.9554 285.667 55.7747L279.829 47.9405L256.39 44.7081C256.121 44.6596 255.932 44.6026 255.822 44.5371C255.607 44.3347 255.467 44.1019 255.4 43.8387C255.306 43.5591 255.332 43.2956 255.48 43.0482L258.279 38.3468C258.623 37.7694 259.149 37.5427 259.858 37.6666L274.659 40.1124L265.531 28.1401C265.118 27.5213 265.075 26.937 265.402 26.3871L268.153 21.7682C268.3 21.5207 268.519 21.3718 268.81 21.3215C269.09 21.2273 269.339 21.2457 269.559 21.3767C269.669 21.4422 269.823 21.5898 270.022 21.8197L290.083 49.578C290.53 50.1418 290.573 50.7262 290.213 51.331L287.511 55.8675Z" fill="#35495E"/>
<path d="M169.763 211.404L167.457 210.031C166.16 209.258 165.342 209.823 162.936 211.797C161.138 209.287 160.5 208.531 159.06 208.903L156.448 209.594C155.937 209.727 155.472 210.079 155.199 210.537C155.015 210.846 154.825 211.165 154.485 214.061C151.411 213.586 150.423 213.508 149.678 214.759L148.281 217.105C147.546 218.34 148.014 219.122 150.005 221.619C147.652 223.368 147.458 223.694 147.285 223.985C147.011 224.444 146.924 225.021 147.049 225.527L147.69 228.161C148.053 229.634 149.1 229.826 152.082 230.122C151.557 233.28 151.482 234.195 152.745 234.948L155.054 236.322C156.35 237.095 157.17 236.531 159.575 234.559C161.371 237.065 162.011 237.817 163.446 237.45L166.053 236.762C166.566 236.633 167.038 236.279 167.312 235.818C167.495 235.511 167.685 235.192 168.024 232.294C171.099 232.767 172.088 232.847 172.833 231.595L174.232 229.247C174.966 228.014 174.497 227.229 172.506 224.729C174.864 222.982 175.058 222.657 175.23 222.368C175.502 221.911 175.589 221.334 175.466 220.826L174.82 218.175C174.451 216.713 173.405 216.52 170.432 216.228C170.94 213.15 171.025 212.156 169.763 211.404ZM173.138 221.223C172.946 221.409 172.368 221.911 170.668 223.157L170.276 223.444L169.986 225.346L170.307 225.75C170.697 226.233 171.792 227.598 172.123 228.173L170.879 230.258C170.23 230.257 168.521 229.991 167.829 229.883L167.336 229.807L165.804 230.969L165.748 231.47C165.515 233.569 165.366 234.3 165.311 234.525L162.994 235.135C162.536 234.661 161.539 233.264 161.136 232.698L160.842 232.284L158.955 232.02L158.556 232.348C158.02 232.791 156.69 233.885 156.122 234.222L154.081 233.007C154.096 232.357 154.377 230.683 154.505 229.918L154.587 229.426L153.455 227.892L152.932 227.843C152.315 227.784 150.587 227.616 149.938 227.451L149.372 225.129C149.564 224.943 150.14 224.438 151.842 223.188L152.235 222.902L152.524 221.004L152.2 220.601C151.809 220.118 150.716 218.753 150.382 218.179L151.625 216.093C152.275 216.095 153.985 216.362 154.677 216.469L155.17 216.545L156.702 215.386L156.758 214.882C156.992 212.782 157.139 212.052 157.195 211.828L159.512 211.216C159.968 211.689 160.965 213.088 161.371 213.653L161.667 214.068L163.558 214.332L163.955 214.004C164.492 213.563 165.818 212.471 166.387 212.13L168.421 213.343C168.41 214.006 168.12 215.735 168.004 216.436L167.922 216.928L169.058 218.46L169.578 218.51C170.193 218.569 171.921 218.736 172.569 218.898L173.138 221.223Z" fill="#35495E"/>
<path d="M157.609 221.004C156.391 223.05 157.036 225.689 159.047 226.886C161.058 228.084 163.687 227.395 164.905 225.349C166.124 223.303 165.477 220.664 163.466 219.466C161.455 218.269 158.828 218.958 157.609 221.004ZM162.881 224.143C162.325 225.077 161.142 225.402 160.248 224.87C159.353 224.337 159.078 223.143 159.634 222.21C160.19 221.277 161.37 220.952 162.264 221.484C163.158 222.017 163.436 223.21 162.881 224.143Z" fill="#35495E"/>
<path d="M179.334 204.39C178.511 203.24 178.219 202.894 177.561 203.064L176.363 203.383C176.129 203.442 175.916 203.604 175.792 203.813C175.707 203.955 175.621 204.1 175.466 205.427C174.059 205.21 173.607 205.173 173.266 205.745L172.627 206.818C172.291 207.383 172.506 207.743 173.416 208.885C172.341 209.683 172.251 209.833 172.172 209.966C172.048 210.175 172.009 210.44 172.065 210.672L172.358 211.88C172.524 212.552 173.005 212.64 174.368 212.776C174.127 214.223 174.095 214.639 174.673 214.983L175.73 215.613C176.323 215.966 176.699 215.71 177.799 214.806C178.622 215.952 178.913 216.299 179.571 216.13L180.764 215.815C180.999 215.754 181.214 215.592 181.34 215.381C181.423 215.241 181.51 215.095 181.665 213.767C183.073 213.984 183.525 214.021 183.865 213.449L184.505 212.375C184.841 211.811 184.627 211.453 183.716 210.308C184.794 209.508 184.883 209.36 184.962 209.228C185.086 209.018 185.126 208.753 185.069 208.521L184.772 207.309C184.604 206.64 184.125 206.553 182.765 206.419C182.998 205.01 183.036 204.555 182.458 204.211L181.401 203.582C180.808 203.228 180.434 203.486 179.334 204.39ZM181.846 205.096C181.841 205.399 181.708 206.191 181.653 206.511L181.617 206.735L182.136 207.436L182.376 207.458C182.657 207.484 183.448 207.561 183.745 207.636L184.003 208.699C183.914 208.785 183.651 209.016 182.873 209.586L182.693 209.717L182.562 210.586L182.708 210.77C182.886 210.992 183.387 211.617 183.539 211.88L182.97 212.835C182.672 212.833 181.889 212.714 181.574 212.663L181.348 212.628L180.646 213.158L180.62 213.388C180.513 214.349 180.444 214.684 180.42 214.788L179.358 215.066C179.15 214.849 178.694 214.211 178.509 213.952L178.373 213.763L177.511 213.641L177.328 213.79C177.082 213.991 176.473 214.493 176.214 214.648L175.28 214.092C175.288 213.795 175.415 213.029 175.473 212.681L175.512 212.456L174.991 211.753L174.754 211.73C174.472 211.706 173.681 211.628 173.385 211.553L173.127 210.489C173.213 210.404 173.476 210.173 174.257 209.603L174.437 209.472L174.57 208.603L174.421 208.42C174.244 208.196 173.742 207.574 173.59 207.311L174.159 206.355C174.457 206.357 175.24 206.479 175.557 206.528L175.783 206.563L176.484 206.034L176.51 205.803C176.616 204.841 176.685 204.506 176.711 204.404L177.772 204.123C177.979 204.341 178.435 204.979 178.621 205.241L178.755 205.43L179.622 205.551L179.803 205.402C180.05 205.199 180.658 204.699 180.917 204.543L181.846 205.096Z" fill="#35495E"/>
<path d="M176.896 208.604C176.339 209.539 176.634 210.747 177.553 211.294C178.473 211.842 179.676 211.526 180.233 210.591C180.791 209.655 180.496 208.446 179.575 207.898C178.657 207.351 177.454 207.667 176.896 208.604ZM179.307 210.04C179.053 210.467 178.514 210.616 178.102 210.371C177.695 210.129 177.567 209.582 177.822 209.155C178.076 208.728 178.615 208.579 179.025 208.823C179.437 209.066 179.562 209.613 179.307 210.04Z" fill="#35495E"/>
</svg>
